<?xml version="1.0" standalone="no"?>
<!DOCTYPE svg PUBLIC "-//W3C//DTD SVG 20010904//EN"
 "http://www.w3.org/TR/2001/REC-SVG-20010904/DTD/svg10.dtd">
<svg version="1.0" xmlns="http://www.w3.org/2000/svg"
 width="659.000000pt" height="651.000000pt" viewBox="0 0 659.000000 651.000000"
 preserveAspectRatio="xMidYMid meet">

<g transform="translate(0.000000,651.000000) scale(0.100000,-0.100000)"
fill="#000000" stroke="none">
<path d="M3762 5144 c-28 -14 -75 -52 -106 -85 -71 -76 -205 -255 -222 -296
-8 -18 -18 -33 -22 -33 -5 0 -46 11 -92 25 -207 62 -500 58 -734 -10 -49 -14
-92 -22 -96 -18 -4 4 -17 49 -30 98 -13 50 -32 108 -42 130 -10 22 -16 32 -13
22 18 -64 13 -63 -21 2 -40 78 -90 136 -129 151 -89 34 -195 -84 -348 -386
-156 -310 -259 -599 -328 -929 -36 -175 -44 -314 -29 -525 7 -91 14 -196 17
-235 4 -46 8 -63 13 -50 6 16 11 7 25 -40 79 -272 225 -498 440 -685 201 -174
482 -301 735 -331 158 -20 192 -21 315 -9 180 16 332 58 532 147 15 6 17 1 33
-92 34 -195 120 -500 203 -719 30 -81 209 -237 290 -253 15 -3 30 -10 33 -14
3 -5 21 -9 40 -9 21 0 33 -4 29 -10 -8 -13 30 -13 79 1 21 6 46 12 56 14 31 6
95 51 121 86 25 32 89 151 89 164 0 4 -4 3 -10 0 -6 -4 -10 6 -10 22 0 73 -56
211 -108 266 l-26 27 33 0 c30 0 57 7 171 44 33 11 100 84 100 109 0 6 -14 -8
-31 -31 -25 -35 -73 -72 -92 -72 -2 0 15 19 37 43 97 101 111 209 47 339 -19
38 -38 68 -42 68 -5 0 -9 19 -9 43 0 39 3 44 41 65 55 32 67 65 65 176 -2 81
-6 99 -36 160 -18 37 -44 81 -57 96 -21 25 -21 28 -4 23 32 -8 61 14 61 47 0
26 4 30 29 30 26 0 90 39 66 40 -6 0 -17 -6 -24 -12 -8 -7 -3 3 10 22 13 19
27 37 32 38 4 2 7 31 7 64 0 58 -30 138 -52 138 -4 0 -8 10 -8 21 0 12 -17 39
-39 60 -42 42 -88 52 -111 24 -7 -8 -17 -12 -24 -8 -6 3 0 -7 14 -23 40 -47
45 -51 26 -20 -15 23 -16 30 -5 37 20 12 36 11 68 -5 23 -13 61 -55 61 -69 0
-2 -20 -3 -45 -2 -26 0 -45 -3 -45 -9 0 -6 -5 -4 -10 4 -8 11 -9 8 -6 -15 2
-16 5 -37 6 -45 1 -10 4 -9 9 5 13 30 25 -65 17 -123 -4 -26 -8 -55 -9 -64 -1
-9 -6 -16 -12 -15 -5 1 -9 -3 -8 -10 2 -7 -4 -10 -12 -7 -11 5 -13 2 -9 -9 4
-12 -3 -17 -30 -22 -44 -9 -66 -1 -66 23 0 19 -35 28 -45 11 -3 -5 1 -6 9 -3
11 4 19 -2 25 -19 13 -34 50 -38 105 -12 37 18 48 20 57 9 14 -17 8 -44 -13
-57 -12 -8 -24 -7 -45 3 -46 24 -49 24 -30 2 12 -13 15 -22 7 -27 -6 -3 -9 -1
-8 6 4 19 -61 40 -102 32 -19 -3 -54 -5 -76 -4 -33 1 -50 -5 -85 -32 -70 -53
-91 -100 -92 -210 0 -72 -2 -82 -7 -47 l-7 45 -1 -42 c-2 -34 3 -45 28 -66 19
-17 37 -23 51 -20 19 5 20 7 4 15 -21 13 -14 62 21 130 29 58 31 82 3 48 l-21
-25 15 25 c8 14 20 24 26 22 7 -1 14 6 18 15 7 19 22 33 36 33 5 0 5 -5 1 -11
-5 -8 -1 -8 14 0 29 15 34 14 76 -14 l37 -25 -7 22 c-6 20 -3 19 17 -6 13 -16
29 -55 35 -85 11 -49 12 -52 13 -20 1 46 -15 95 -45 135 -20 27 -31 32 -83 38
-34 4 -61 10 -61 14 0 34 69 41 143 16 51 -17 112 -77 123 -119 9 -35 -13
-109 -42 -140 -27 -29 -41 -32 -47 -7 -3 10 -5 6 -6 -10 -1 -21 4 -28 17 -28
19 0 102 79 102 97 0 7 4 15 10 18 17 11 4 -107 -18 -157 -13 -30 -31 -52 -51
-62 -41 -21 -45 -20 -21 7 60 65 64 70 47 57 -15 -11 -22 -11 -43 1 -27 14
-33 10 -62 -37 -5 -8 -29 -8 -84 -1 -135 18 -186 -12 -196 -116 l-5 -52 21 25
c57 68 69 79 101 89 31 10 40 7 106 -31 73 -41 82 -51 104 -119 13 -40 8 -60
-24 -104 -46 -63 -41 -70 14 -21 l24 21 -17 -32 c-19 -38 -72 -68 -146 -84
-53 -11 -71 -25 -45 -35 26 -10 105 17 151 52 23 18 44 31 46 28 5 -4 34 90
42 136 3 14 3 -3 1 -36 -3 -37 -15 -84 -29 -115 -18 -39 -24 -46 -20 -24 l5
30 -15 -34 c-9 -18 -13 -38 -9 -44 3 -5 2 -8 -3 -5 -5 3 -21 -12 -36 -33 -36
-51 -20 -50 25 1 48 53 73 103 88 180 7 35 14 60 16 54 8 -25 -38 -199 -68
-254 -39 -74 -58 -91 -106 -95 -41 -4 -63 7 -81 42 -16 29 -15 36 3 29 8 -3
15 -1 15 3 0 11 -26 22 -34 14 -16 -16 -3 -49 32 -81 20 -19 27 -30 15 -24
-30 17 -42 14 -19 -3 11 -8 15 -15 8 -15 -18 0 -82 33 -82 42 0 4 -4 8 -10 8
-5 0 -10 -7 -10 -16 0 -13 -6 -15 -27 -10 -16 4 -56 10 -90 13 -56 5 -63 8
-64 27 0 20 -1 20 -9 1 -8 -19 -9 -19 -9 -1 -1 11 11 40 25 65 l25 46 -30 -35
c-17 -19 -31 -40 -31 -47 0 -23 -17 -22 -50 2 -41 30 -92 109 -57 89 6 -4 4 1
-5 12 -21 25 -68 124 -67 144 0 8 7 -3 15 -26 17 -46 47 -78 84 -89 20 -5 18
-2 -12 19 -43 31 -81 121 -57 137 12 7 12 9 0 9 -10 0 -12 9 -6 37 12 67 39
106 81 119 32 10 34 12 14 13 -20 1 -22 3 -10 11 31 20 57 11 84 -30 27 -41
45 -55 26 -21 -15 30 -12 36 9 17 12 -11 20 -35 23 -67 5 -48 36 -99 62 -99 6
0 1 7 -11 15 -33 23 -47 85 -32 138 l13 42 11 -60 c6 -33 17 -77 24 -97 12
-35 15 -38 51 -38 21 0 41 4 44 9 3 4 -6 6 -21 3 -15 -3 -24 -1 -20 5 3 5 -4
9 -16 9 -25 -1 -41 41 -52 136 -4 32 -10 58 -14 58 -4 0 -14 -14 -22 -30 l-14
-30 -35 47 c-31 41 -41 48 -70 48 -41 0 -65 14 -65 35 0 24 -51 23 -96 -2 -44
-24 -69 -62 -69 -102 0 -21 37 -78 63 -97 4 -3 5 -18 1 -33 -11 -46 16 -156
57 -235 46 -85 46 -104 1 -34 -18 28 -55 125 -91 238 -82 258 -78 237 -39 267
18 14 60 52 94 84 l60 59 24 -47 c13 -26 32 -50 42 -54 25 -8 105 6 117 20 8
10 -2 12 -43 8 -48 -4 -57 -1 -80 21 -18 18 -26 37 -26 60 0 41 15 57 55 57
18 0 39 8 48 18 24 26 21 36 -5 18 -26 -18 -48 -21 -48 -6 0 5 15 31 34 57 18
27 43 66 55 88 16 31 28 41 53 45 33 5 33 5 30 57 -2 32 2 62 11 80 l15 28 6
-45 c12 -91 14 -93 13 -11 l-2 84 19 -44 c19 -42 29 -152 14 -142 -8 4 -57
-46 -58 -59 0 -17 81 49 86 69 11 42 -2 137 -24 183 -21 41 -22 40 -6 -7 3
-10 -1 -6 -10 8 -11 19 -13 34 -5 65 75 310 77 527 10 799 -17 66 -48 194 -70
285 -53 221 -92 347 -216 695 -114 323 -132 364 -178 413 -38 39 -66 41 -135
6z m123 -38 c14 -18 25 -37 25 -41 0 -5 6 -16 14 -24 19 -22 64 -149 141 -401
37 -118 79 -249 95 -290 24 -66 92 -280 106 -335 3 -11 -8 3 -23 30 -112 197
-317 417 -482 519 -102 63 -286 156 -308 156 -19 0 -17 5 26 68 33 49 266 312
276 312 2 0 -20 -35 -49 -77 -67 -98 -179 -299 -174 -313 2 -6 19 15 38 47 49
84 146 229 197 295 46 60 54 79 26 57 -17 -13 -17 -13 -1 6 28 33 63 30 93 -9z
m-110 14 c-3 -5 -12 -10 -18 -10 -7 0 -6 4 3 10 19 12 23 12 15 0z m-1498 -29
c45 -33 84 -105 135 -251 16 -47 36 -90 45 -97 24 -19 12 -32 -62 -66 -192
-89 -298 -160 -431 -292 -45 -44 -102 -109 -128 -144 -25 -35 -46 -59 -46 -55
0 14 124 362 170 475 79 198 174 381 219 422 23 20 45 37 50 37 4 0 26 -13 48
-29z m-198 -108 c-23 -43 -49 -89 -58 -103 -8 -14 -16 -29 -17 -35 -1 -5 -28
-71 -59 -145 -31 -74 -94 -246 -140 -382 -46 -136 -102 -286 -124 -333 -23
-47 -41 -92 -41 -100 0 -8 -5 -17 -11 -21 -7 -4 -9 0 -6 12 3 11 11 54 16 96
11 76 55 229 92 316 11 25 21 53 22 63 2 9 9 24 16 33 7 8 10 20 6 26 -3 5 -1
10 5 10 6 0 9 4 6 9 -8 12 4 42 14 36 5 -3 6 3 4 12 -10 37 283 583 312 583 2
0 -14 -35 -37 -77z m1051 -218 c41 -4 135 -22 209 -42 119 -31 153 -45 310
-130 188 -101 277 -167 363 -266 200 -230 315 -479 359 -779 18 -125 6 -340
-26 -468 -14 -58 -30 -109 -36 -115 -7 -7 -9 -5 -7 5 5 26 -96 70 -156 69
l-51 -2 60 -7 c98 -11 105 -25 14 -25 -52 -1 -83 -6 -91 -14 -11 -11 -8 -12
12 -6 18 6 13 -1 -20 -27 -103 -78 -141 -233 -87 -352 15 -32 38 -67 51 -77
l25 -20 -20 -33 c-21 -36 -182 -196 -197 -196 -11 0 -40 107 -82 300 -53 242
-136 461 -194 508 -12 10 -30 28 -41 41 l-20 24 43 -7 c54 -8 211 17 289 46
66 24 140 93 214 198 49 69 56 88 84 213 26 116 5 298 -43 380 l-17 27 -16
-21 c-12 -16 -21 -20 -40 -14 -21 7 -19 10 29 31 55 24 67 36 30 27 -52 -12
-341 -97 -440 -129 -58 -19 -117 -36 -130 -36 -57 -2 -173 -37 -758 -228 -234
-76 -505 -164 -604 -195 -98 -31 -215 -72 -259 -91 -45 -19 -83 -34 -85 -34
-10 0 -42 98 -42 130 0 67 -17 53 -23 -20 -6 -78 -27 -125 -57 -133 -30 -8
-26 -37 6 -37 16 0 37 -11 54 -30 23 -24 28 -41 32 -97 6 -72 24 -126 42 -120
17 5 19 75 5 140 -6 32 -9 60 -6 64 8 7 11 -3 26 -86 42 -224 200 -341 458
-341 109 0 195 25 294 87 81 49 221 200 260 278 33 67 69 242 69 336 l0 55 45
22 c25 12 58 22 73 22 25 0 29 -6 66 -110 42 -123 96 -212 158 -264 l42 -34
-42 -21 c-60 -31 -131 -29 -171 5 l-31 26 0 -23 c0 -95 -259 -260 -327 -208
-17 12 -17 12 -1 -6 16 -18 23 -18 75 -7 32 7 80 26 107 42 27 17 50 29 51 28
6 -6 25 -110 25 -133 0 -19 -5 -25 -20 -25 -29 0 -70 44 -70 75 0 15 -4 24
-10 20 -21 -13 -10 -66 19 -96 26 -26 36 -29 94 -29 85 0 164 39 241 119 31
33 56 54 57 48 1 -7 4 -1 8 12 11 39 26 35 78 -17 81 -81 133 -240 207 -635
20 -103 36 -194 36 -201 0 -7 -35 -29 -77 -49 -153 -69 -311 -108 -498 -122
-184 -14 -487 44 -645 125 -93 47 -288 175 -360 236 -81 68 -98 88 -204 233
-95 132 -128 206 -192 431 l-56 195 -1 165 c-2 208 25 356 88 494 13 28 39 87
58 132 37 88 184 292 270 376 72 71 276 212 385 267 171 86 463 149 622 135
19 -1 69 -6 110 -9z m846 -804 c-7 -11 -56 -21 -56 -10 0 4 8 10 18 12 30 8
43 7 38 -2z m75 -78 c19 -39 23 -66 23 -148 1 -119 -12 -167 -60 -223 -33 -39
-36 -59 -5 -29 22 20 3 -11 -38 -61 -48 -61 -106 -98 -224 -145 -94 -37 -109
-40 -189 -39 -150 3 -196 22 -303 127 -62 61 -145 213 -124 226 11 7 10 11 -6
23 -16 12 -17 16 -6 30 7 9 17 16 22 16 5 0 85 26 177 58 156 55 350 108 359
98 2 -2 -30 -74 -71 -160 -41 -86 -72 -156 -70 -156 3 0 41 74 85 164 l80 164
46 11 c25 7 48 10 50 7 6 -6 -71 -117 -156 -227 -36 -45 -59 -79 -53 -75 6 3
32 35 58 71 50 68 67 79 39 26 -8 -17 -14 -31 -11 -31 2 0 25 37 50 83 83 150
98 164 206 202 52 18 96 34 97 34 1 1 12 -20 24 -46z m-931 -163 c-8 -5 -19
-10 -25 -10 -5 0 -3 5 5 10 8 5 20 10 25 10 6 0 3 -5 -5 -10z m70 -14 c0 -2
-29 -14 -64 -26 -34 -11 -93 -36 -130 -55 -36 -19 -69 -35 -72 -35 -3 0 -4 10
-2 21 3 19 21 27 123 56 65 18 121 36 124 38 5 6 21 6 21 1z m-312 -120 c-2
-19 0 -32 4 -30 4 3 7 -32 7 -78 -1 -88 -4 -87 -14 4 -3 31 -12 58 -19 61 -9
4 -12 -2 -9 -17 9 -43 -206 -447 -257 -484 -25 -19 -18 -4 41 85 67 101 129
212 129 230 0 4 -24 -35 -53 -87 -54 -97 -107 -179 -185 -285 -31 -43 -34 -49
-10 -23 21 24 40 36 53 34 11 -1 41 13 68 32 26 19 50 32 53 30 6 -6 -94 -98
-107 -98 -5 0 -6 8 -3 18 4 9 -3 4 -15 -13 -25 -37 -27 -52 -3 -34 15 13 16
12 3 -4 -8 -9 -16 -15 -19 -12 -3 3 -11 -4 -19 -15 -25 -36 -115 -55 -258 -55
-125 0 -133 2 -205 33 -81 36 -111 59 -144 112 -41 64 -42 61 64 190 55 67
100 124 100 127 0 20 -137 -122 -183 -190 l-26 -38 -10 39 c-6 21 -14 59 -17
84 -6 41 -4 46 16 51 28 7 23 41 -8 45 -24 4 -31 22 -8 22 28 0 312 80 671
189 198 60 362 110 364 110 2 1 1 -14 -1 -33z m-43 -263 c-34 -115 -84 -190
-168 -250 l-45 -33 70 123 c61 106 94 171 141 277 11 24 12 23 15 -18 2 -23
-4 -68 -13 -99z m-1046 -69 c-9 -11 -16 -10 -39 9 -26 21 -27 24 -13 50 l14
28 25 -36 c19 -29 22 -40 13 -51z m1542 -50 c1 -18 -18 -13 -41 11 l-24 26 33
-14 c18 -8 32 -18 32 -23z m33 -29 c-10 -8 -23 -15 -28 -15 -6 0 -1 7 10 15
10 8 23 15 28 15 6 0 1 -7 -10 -15z m76 -20 c0 -3 -11 -5 -25 -5 -17 0 -23 4
-19 15 5 11 11 12 25 4 10 -5 19 -12 19 -14z m-318 -38 c11 -4 20 -26 28 -64
6 -32 15 -67 20 -78 16 -36 11 62 -4 100 l-15 35 34 0 c18 0 45 4 59 10 21 8
24 7 19 -8 -3 -9 -14 -26 -23 -37 -22 -26 -33 -82 -18 -87 13 -5 -77 -80 -121
-102 -14 -8 -41 -17 -58 -21 l-33 -7 0 46 c0 25 -7 63 -16 85 l-16 40 37 36
c20 20 41 48 46 62 9 23 11 24 27 11 9 -8 24 -18 34 -21z m339 -21 c33 -23
136 -161 173 -233 9 -17 41 -123 71 -235 31 -112 67 -243 81 -293 14 -49 35
-121 46 -160 11 -38 34 -113 51 -165 18 -52 31 -103 29 -113 -1 -10 2 -15 8
-12 5 3 7 0 4 -9 -6 -16 84 -203 122 -253 13 -17 24 -35 24 -39 0 -3 -16 -24
-35 -45 -52 -58 -44 -131 22 -209 65 -76 139 -94 268 -66 63 13 125 41 125 55
0 5 16 12 35 15 23 5 35 13 36 24 0 14 2 13 8 -3 4 -11 5 -34 1 -52 -4 -18 -4
-33 0 -35 5 -2 4 -25 -3 -53 -14 -65 -60 -133 -95 -141 -15 -4 -54 -15 -87
-26 -79 -26 -140 -19 -209 23 -68 43 -103 76 -129 121 -11 21 -26 38 -32 38
-10 0 -48 55 -51 75 -1 6 -15 40 -32 75 -46 99 -142 372 -142 405 0 9 -8 32
-19 53 -10 20 -28 93 -40 162 -47 262 -107 574 -126 645 -8 32 -13 61 -10 64
7 12 -41 168 -63 203 -12 18 -29 48 -39 66 -9 17 -21 32 -26 32 -5 0 -26 14
-48 30 -25 21 -36 36 -32 46 5 14 3 14 -15 3 -27 -17 -41 -3 -16 16 31 23 104
19 145 -9z m1314 -106 c3 -5 -2 -10 -12 -11 -12 0 -7 -6 14 -16 23 -11 38 -30
49 -58 14 -38 14 -47 1 -86 -11 -36 -22 -48 -56 -65 -23 -11 -38 -23 -35 -27
10 -9 -8 -9 -23 1 -9 5 -8 23 3 70 11 49 12 76 4 120 -5 30 -10 62 -10 69 0
15 56 18 65 3z m-574 -30 c16 -9 49 -58 49 -75 0 -3 -10 1 -22 9 -13 8 -39 18
-59 21 -33 6 -39 4 -61 -27 -28 -36 -40 -72 -31 -94 15 -41 66 8 62 60 -2 19
-1 38 3 41 7 7 17 -54 17 -103 0 -18 9 -48 20 -67 l20 -34 -35 -58 c-20 -32
-43 -66 -52 -76 -15 -17 -17 -17 -28 -2 -10 13 -13 13 -17 2 -3 -8 0 -21 6
-28 10 -10 8 -10 -6 0 -9 8 -15 16 -12 19 7 7 -26 43 -34 37 -18 -10 -14 161
4 223 8 25 13 48 11 49 -5 6 -36 -75 -36 -95 0 -15 -2 -15 -10 -2 -7 11 -10 5
-11 -25 0 -22 -3 -34 -6 -27 -3 7 -2 34 2 59 5 35 9 43 17 32 7 -10 8 -8 5 9
-7 30 2 54 16 45 6 -4 8 0 4 10 -3 9 -3 16 1 14 5 -1 23 15 42 37 47 53 96 69
141 46z m74 -44 c10 -15 14 -33 9 -50 -8 -31 -24 -25 -24 10 0 14 -5 34 -10
45 -16 28 6 24 25 -5z m-54 -39 c9 -7 21 -23 28 -36 11 -20 10 -31 -10 -72
-12 -27 -25 -49 -29 -49 -15 0 -30 55 -30 110 0 62 9 72 41 47z m-112 -63
c-18 -22 -21 -11 -7 27 11 30 13 31 16 11 2 -13 -2 -30 -9 -38z m162 -117
c-18 -18 -23 -1 -9 29 13 28 13 28 16 5 2 -13 -1 -28 -7 -34z m118 -70 c-2 -2
-22 -16 -44 -32 l-40 -28 29 31 c17 18 36 32 45 32 8 0 12 -1 10 -3z m-5 -57
c-21 -22 -39 -40 -41 -40 -12 0 1 26 26 51 45 44 57 35 15 -11z m-67 -85 c-20
-71 -22 -76 -25 -44 -3 31 34 137 43 127 2 -2 -6 -39 -18 -83z m-30 -137 c-3
-7 -5 -2 -5 12 0 14 2 19 5 13 2 -7 2 -19 0 -25z m359 -79 c4 -7 -1 -16 -10
-21 -9 -5 -14 -13 -11 -18 3 -4 -4 -6 -14 -3 -19 5 -19 33 1 33 5 0 6 5 3 10
-3 6 1 10 9 10 8 0 18 -5 22 -11z m-619 -25 c-3 -3 -12 -4 -19 -1 -8 3 -5 6 6
6 11 1 17 -2 13 -5z m693 -31 c-11 -17 -11 -17 -6 0 3 10 6 24 7 30 0 9 2 9 5
0 3 -7 0 -20 -6 -30z m-297 7 c-18 -4 -50 -20 -70 -36 -37 -28 -38 -28 -22 -4
21 32 56 50 94 49 l30 -1 -32 -8z m145 1 c10 -6 8 -10 -9 -14 -12 -3 -30 -2
-38 4 -12 8 -10 8 8 3 16 -4 21 -3 17 5 -8 13 3 14 22 2z m-508 -6 c0 -2 -14
-12 -31 -20 -17 -9 -40 -32 -51 -51 -24 -40 -39 -36 -36 11 1 19 4 32 6 30 3
-2 16 5 30 15 21 17 82 28 82 15z m630 -20 c-7 -8 -17 -15 -23 -15 -5 0 -2 9
8 20 21 23 35 19 15 -5z m-85 -6 c-8 -12 -35 -12 -35 0 0 11 22 20 33 14 4 -2
5 -9 2 -14z m-520 -8 c-17 -16 -87 -52 -92 -48 -6 7 48 44 72 50 11 2 22 5 25
6 2 0 0 -3 -5 -8z m471 -12 c19 -11 34 -23 34 -26 0 -4 -62 30 -79 44 -16 12
18 -1 45 -18z m-639 -31 c-3 -7 -5 -2 -5 12 0 14 2 19 5 13 2 -7 2 -19 0 -25z
m716 16 c11 -4 17 -17 17 -35 0 -16 -2 -29 -4 -29 -2 0 -16 19 -31 41 -15 23
-21 39 -13 35 7 -3 21 -9 31 -12z m76 -351 c-10 -11 -10 -16 0 -22 8 -6 -3
-27 -41 -74 -29 -36 -60 -69 -68 -72 -9 -4 -6 3 7 17 29 31 58 93 76 158 8 30
19 69 23 85 8 27 9 25 12 -23 2 -33 -2 -60 -9 -69z m-242 -9 c-3 -3 -12 -4
-19 -1 -8 3 -5 6 6 6 11 1 17 -2 13 -5z m-337 -191 c0 -20 -25 -15 -47 10 -36
40 -34 46 7 24 22 -12 40 -28 40 -34z m242 -64 c70 -35 78 -36 48 -4 -13 14
-21 27 -18 30 10 10 68 -69 68 -91 0 -13 3 -29 6 -37 3 -9 -9 -31 -30 -55 -35
-38 -37 -39 -123 -46 -142 -10 -177 -2 -241 59 -44 43 -53 58 -50 81 2 19 8
28 17 26 11 -2 12 0 3 11 -10 12 -6 17 20 27 18 6 40 16 50 20 16 9 37 -16 74
-85 8 -14 23 -21 55 -23 l44 -3 -43 32 c-23 17 -49 44 -57 59 l-15 29 38 4
c55 6 90 -2 154 -34z m-138 -64 c16 -12 17 -15 4 -15 -8 0 -21 7 -28 15 -16
19 -1 19 24 0z m81 -154 c-13 -21 -73 -32 -114 -21 -60 16 -50 24 22 17 35 -4
69 -2 77 3 19 12 23 12 15 1z m51 -16 c-11 -8 -29 -15 -39 -15 -16 0 -17 3 -7
15 7 8 24 15 39 15 25 -1 25 -1 7 -15z m-395 -132 c13 -16 12 -17 -3 -4 -17
13 -22 21 -14 21 2 0 10 -8 17 -17z"/>
<path d="M1856 4583 c-6 -14 -5 -15 5 -6 7 7 10 15 7 18 -3 3 -9 -2 -12 -12z"/>
<path d="M1832 4535 c-17 -37 -14 -45 4 -12 9 16 14 31 11 33 -2 2 -9 -7 -15
-21z"/>
<path d="M3785 3673 c-36 -50 -100 -163 -91 -163 2 0 17 21 34 48 16 26 45 73
66 105 44 69 39 75 -9 10z"/>
<path d="M3656 3583 c-6 -14 -5 -15 5 -6 7 7 10 15 7 18 -3 3 -9 -2 -12 -12z"/>
<path d="M3546 3493 c-4 -5 -13 -8 -19 -8 -7 0 -12 -7 -12 -15 0 -8 -5 -19
-11 -25 -15 -13 -77 -125 -70 -125 3 0 33 41 66 90 55 81 67 104 46 83z"/>
<path d="M3605 3489 c-4 -6 -5 -12 -2 -15 2 -3 7 2 10 11 7 17 1 20 -8 4z"/>
<path d="M2787 3483 c9 -3 7 -17 -7 -56 -11 -28 -18 -53 -16 -55 4 -3 46 102
46 113 0 3 -8 5 -17 4 -10 0 -13 -3 -6 -6z"/>
<path d="M2114 3243 c-48 -54 -115 -126 -148 -161 -34 -35 -54 -60 -44 -57 15
6 294 315 284 315 -2 0 -44 -44 -92 -97z"/>
<path d="M2274 3223 c-21 -27 -53 -68 -72 -93 l-34 -45 45 49 c46 50 112 136
104 136 -3 0 -22 -21 -43 -47z"/>
<path d="M2460 2905 c-7 -8 -16 -12 -21 -9 -5 3 -9 0 -9 -5 0 -17 15 -13 35 9
10 11 16 20 13 20 -3 0 -11 -7 -18 -15z"/>
<path d="M3060 3043 c1 -25 24 -111 33 -119 11 -11 8 56 -4 99 -10 38 -29 51
-29 20z"/>
<path d="M4508 3113 c7 -3 16 -2 19 1 4 3 -2 6 -13 5 -11 0 -14 -3 -6 -6z"/>
<path d="M4548 3113 c6 -2 18 -2 25 0 6 3 1 5 -13 5 -14 0 -19 -2 -12 -5z"/>
<path d="M4495 2983 c-62 -13 -80 -41 -66 -103 l7 -35 6 48 c3 27 11 54 18 60
9 9 10 5 5 -18 l-7 -30 21 32 c17 26 26 31 55 30 19 -1 33 -3 31 -5 -1 -2 10
-16 26 -32 34 -33 39 -90 13 -130 l-16 -25 21 24 c51 58 -2 194 -74 190 -11
-1 -29 -3 -40 -6z"/>
<path d="M4401 2924 c0 -21 4 -48 9 -59 6 -13 7 -1 3 35 -7 66 -13 78 -12 24z"/>
<path d="M4682 2855 c0 -16 2 -22 5 -12 2 9 2 23 0 30 -3 6 -5 -1 -5 -18z"/>
<path d="M4420 2832 c0 -23 26 -77 46 -92 14 -12 14 -9 -4 14 -30 39 -28 52 4
27 28 -22 98 -29 109 -11 4 6 -5 7 -24 4 -48 -10 -81 3 -96 39 -8 18 -14 25
-15 17 0 -13 -1 -13 -10 0 -7 10 -10 11 -10 2z"/>
<path d="M4578 2723 c6 -2 18 -2 25 0 6 3 1 5 -13 5 -14 0 -19 -2 -12 -5z"/>
<path d="M4193 1925 c15 -22 29 -55 32 -73 3 -17 7 -46 10 -62 3 -17 1 -29 -4
-26 -5 3 -11 -7 -14 -22 l-5 -27 24 30 c25 31 32 51 14 40 -6 -4 -10 10 -10
35 0 47 -21 99 -52 127 -17 15 -16 11 5 -22z"/>
</g>
</svg>
